<svg xmlns="http://www.w3.org/2000/svg" viewBox="0 0 900 650">
  <rect width="900" height="650" fill="#f4d38a"/>
  <path d="M0 420c160-80 285-86 420-20 144 70 275 44 480-34v284H0z" fill="#0f6b56"/>
  <path d="M0 492c170-40 290-30 410 5 168 48 312 21 490-46v199H0z" fill="#183b32"/>
  <path d="M392 420c30-110 20-205-30-285 58 50 92 115 105 195 39-76 96-123 170-145-55 60-91 130-108 209 58-36 118-55 180-58-59 34-108 76-147 126 44-7 88-3 131 12-80 10-151 28-214 54l-19 94h-77l23-112c-52-26-110-43-175-49 53-23 106-28 161-41z" fill="#0b2d26"/>
  <text x="44" y="90" fill="#183b32" font-family="Arial, sans-serif" font-size="54" font-weight="700">Bazma Oasis</text>
</svg>
